<svg width="216" height="59" viewBox="0 0 216 59" fill="none" xmlns="http://www.w3.org/2000/svg">
<path d="M53.1 1.1998C55.6 1.9998 57.3 3.1998 58.1 4.6998C58.9 6.1998 58.9001 7.89981 58.2001 9.5998C57.7001 10.9998 56.9001 12.5998 55.9001 14.1998C54.8001 15.8998 53.6 17.5998 52.1 19.2998C50.6 20.9998 48.9001 22.6998 47 24.3998C45 25.9998 43 27.5998 40.9001 28.9998C39 30.2998 37.1 31.3998 35.1 32.2998C33.1 33.1998 31.1 33.9998 29.1 34.6998C27.1 35.3998 25 36.0998 22.9 36.6998C20.8 37.2998 18.7001 37.9998 16.6 38.5998C16.2001 38.6998 15.8 38.7998 15.4 38.8998C15 38.8998 14.7 39.0998 14.4 39.2998C14.3 39.6998 14.2 39.9998 14 40.3998C13.8 40.7998 13.7 41.0998 13.6 41.4998C13.3 42.2998 13.1 42.7998 13 43.1998C12.9 43.5998 12.8 43.8998 12.8 44.1998C12.8 44.4998 12.7 44.8998 12.6 45.1998C12.5 45.5998 12.4 46.0998 12.1 46.8998C11.8 47.7998 11.6 48.5998 11.5 49.4998C11.4 50.2998 11.3 51.1998 11.2 52.0998C11.1 52.3998 11.1 52.6998 11.3 52.8998C11.5 53.0998 11.5 53.3998 11.3 53.8998V54.3998C10.9 54.3998 10.6 54.3998 10.4 54.2998C10.2 54.2998 10 54.0998 9.90005 53.8998C9.50005 53.6998 9.20005 53.2998 9.00005 52.8998C8.90005 52.3998 8.70005 52.0998 8.60005 51.6998C8.60005 51.5998 8.60005 51.4998 8.70005 51.4998C8.80005 51.4998 8.70005 51.4998 8.60005 51.4998V50.9998V50.5998C8.50005 49.7998 8.50005 48.9998 8.60005 48.2998C8.80005 47.5998 8.90005 46.7998 9.00005 45.9998C9.10005 44.9998 9.30005 44.0998 9.50005 43.3998C9.70005 42.6998 10.1 41.5998 10.6 40.4998C10.2 40.3998 9.90005 40.3998 9.60005 40.2998C9.30005 40.2998 9.00005 40.2998 8.70005 40.2998C8.20005 40.2998 7.70005 40.2998 7.20005 40.1998C6.70005 40.0998 6.20005 40.0998 5.70005 40.0998C4.70005 40.0998 3.80005 39.8998 3.10005 39.4998C2.30005 39.0998 1.60005 38.6998 0.800049 38.0998C0.100049 37.6998 -0.199951 36.9998 -0.199951 35.9998C0.600049 35.8998 1.20005 35.8998 1.60005 36.0998C2.00005 36.1998 2.40005 36.4998 2.80005 36.8998C3.10005 37.2998 3.40005 37.5998 3.80005 37.8998C4.40005 37.7998 4.90005 37.9998 5.50005 37.9998C6.20005 37.9998 7.00005 37.9998 7.80005 37.9998C8.60005 37.9998 9.40005 37.8998 10.2 37.7998C10.6 37.7998 10.9 37.6998 11.1 37.3998C11.3 37.0998 11.6 36.8998 11.9 36.7998C12.2 36.3998 12.4 36.0998 12.6 35.8998C12.8 35.6998 13 35.3998 13.1 34.9998C14 33.0998 15 31.1998 16 29.1998C17 27.2998 18.1 25.3998 19.1 23.4998C20.2001 21.5998 21.3 19.7998 22.4 18.0998C23.5 16.3998 24.6 14.7998 25.7001 13.3998C25.9001 13.0998 26.1 12.8998 26.3 12.6998C26.5 12.4998 26.5 12.1998 26.4 11.7998C26.4 11.5998 26.5 11.3998 26.7001 11.1998C26.9001 10.9998 27.1 10.7998 27.3 10.6998C28.5 10.4998 29.8001 10.6998 31.1 11.3998C31.3001 11.8998 31.3 12.3998 30.9 12.8998C30.5 13.2998 30.1 13.7998 29.7001 14.1998C29.3001 14.5998 28.9 15.0998 28.4 15.4998C27.4 16.8998 26.4001 18.3998 25.2001 20.1998C24 21.8998 22.9001 23.7998 21.7001 25.5998C20.5 27.4998 19.4 29.2998 18.3 31.1998C17.2 33.0998 16.3 34.7998 15.6 36.3998C16.3 36.3998 16.7 36.3998 16.9 36.2998C20.8 34.8998 24.5 33.4998 28.2001 32.0998C31.8 30.6998 35.4001 28.9998 39 26.9998C40.2001 26.2998 41.6 25.2998 43.1 24.0998C44.6 22.8998 46.2001 21.4998 47.8 19.8998C49.3 18.3998 50.7001 16.7998 52 15.0998C53.3 13.3998 54.1 11.7998 54.6 10.1998C55.1 8.5998 55.2001 7.1998 54.7001 5.8998C54.3 4.5998 53.1 3.5998 51.3 2.7998C50.5 2.4998 49.8 2.2998 49.1 2.1998C48.4 2.0998 47.6 2.0998 46.8 2.0998C44.6 1.9998 42.5 2.0998 40.4001 2.1998C38.3001 2.3998 36.2 2.6998 34.1 3.2998C31.7 3.7998 29.4 4.4998 27.1 5.1998C24.8001 5.9998 22.6 6.8998 20.5 7.9998C18 9.2998 15.6 10.6998 13.5 12.3998C11.3 13.9998 9.50005 15.8998 7.90005 18.1998C7.30005 18.9998 6.80005 19.8998 6.40005 20.7998C6.00005 21.6998 5.80005 22.6998 5.70005 23.6998C5.70005 24.4998 5.90005 25.1998 6.20005 25.7998C6.50005 26.3998 7.20005 26.7998 8.20005 27.1998C8.30005 27.2998 8.50005 27.3998 8.70005 27.5998C8.90005 27.7998 9.00005 27.8998 9.10005 27.9998C9.40005 28.0998 9.60005 28.1998 9.70005 28.4998C9.80005 28.6998 9.90005 28.8998 10.2 29.1998C9.60005 29.3998 9.00005 29.4998 8.50005 29.3998C8.00005 29.2998 7.60005 29.2998 7.20005 29.1998C6.70005 28.9998 6.20005 28.7998 5.70005 28.5998C5.20005 28.3998 4.80005 28.1998 4.40005 27.8998C3.80005 27.3998 3.20005 26.8998 2.70005 26.2998C2.20005 25.6998 1.80005 25.0998 1.60005 24.3998C1.50005 23.9998 1.50005 23.6998 1.50005 23.2998C1.50005 22.8998 1.60005 22.4998 1.90005 22.0998C2.30005 21.1998 2.80005 20.1998 3.30005 19.2998C3.80005 18.3998 4.30005 17.4998 5.00005 16.5998C5.20005 16.0998 5.50005 15.6998 5.90005 15.2998C6.30005 14.8998 6.70005 14.5998 7.20005 14.1998C7.50005 13.9998 7.70005 13.7998 7.80005 13.4998C7.90005 13.1998 8.20005 12.9998 8.40005 12.7998C10.6 10.7998 13.2001 8.9998 16.1 7.5998C18.1 6.5998 20.1 5.5998 22.1 4.6998C24.1 3.7998 26.1 2.9998 28.3 2.3998C29.4 2.1998 30.6 1.9998 31.7001 1.6998C32.8 1.3998 34 1.0998 35.2001 0.899805C36.8 0.599805 38.4001 0.499805 40.2001 0.499805C41.1001 0.399805 42 0.299805 42.8 0.299805C43.7001 0.299805 44.5 0.299805 45.3 0.299805C46.7001 0.299805 48 0.399805 49.3 0.499805C50.5 0.399805 51.8 0.699805 53.1 1.1998Z" fill="white"/>
<path d="M48.2 37.5999C48.3 37.2999 48.4 37.0999 48.4 36.9999C48.4 36.7999 48.5 36.6999 48.6 36.5999C48.9 35.4999 49.5 34.4999 50.2 33.4999C50.9 32.4999 51.4 31.6999 51.7 30.9999C51.8 30.7999 51.9 30.5999 51.9 30.4999C51.9 30.2999 52 30.0999 52.1 29.8999C52.2 29.6999 52.3 29.4999 52.4 29.1999C52.5 28.9999 52.7 28.7999 52.8 28.6999C52.9 28.4999 53 28.2999 53.1 28.2999C53.2 28.2999 53.4 28.1999 53.6 28.1999H53.8C54.3 28.1999 54.7 28.3999 55 28.9999C55.1 29.0999 55.2 29.3999 55.1 29.6999C54.9 30.0999 54.8 30.2999 54.7 30.3999C54.3 30.9999 53.9 31.5999 53.5 32.0999C53.1 32.5999 52.8 33.1999 52.5 33.7999C52.3 34.1999 52 34.5999 51.8 35.0999C51.6 35.5999 51.3 36.0999 51.1 36.3999C51 36.4999 50.9 36.6999 50.8 37.0999C50.7 37.4999 50.6 37.6999 50.6 37.7999C50.6 37.8999 50.6 37.9999 50.8 37.9999C51 37.9999 51.1 38.0999 51.2 38.0999C51.6 38.0999 52.1 37.8999 52.7 37.6999C53.3 37.4999 53.9 37.1999 54.6 36.8999C55.3 36.5999 56 36.2999 56.7 35.8999C57.4 35.4999 58.1 35.0999 58.8 34.6999C59.2 34.4999 59.5 34.2999 59.9 34.1999C60.2 33.9999 60.6 33.8999 61 33.8999C61.1 33.8999 61.1 34.0999 61.1 34.1999V34.3999C61 34.5999 60.8 34.7999 60.6 34.9999C60.4 35.1999 60.2 35.2999 59.9 35.4999C59.4 35.8999 58.8 36.3999 58 36.8999C57.2 37.3999 56.4 37.8999 55.6 38.4999C54.8 38.9999 54 39.4999 53.2 39.8999C52.4 40.2999 51.8 40.5999 51.3 40.7999C50.8 40.9999 50.3 41.0999 49.7 40.8999L49.1 40.6999C48.5 40.3999 48.2 39.9999 48.1 39.3999C48 39.1999 48 39.0999 48 38.9999C48 38.9999 48 38.8999 48 38.6999C48 38.2999 48 38.0999 48.1 37.8999C48.1 37.8999 48.1 37.7999 48.2 37.5999ZM53.9 26.1999C53.9 26.0999 54 25.9999 54 25.8999C54 25.7999 54 25.6999 54.1 25.5999C54.2 25.1999 54.3 24.8999 54.4 24.6999C54.5 24.3999 54.7 24.1999 54.8 23.8999C54.8 23.7999 54.9 23.6999 55 23.6999C55.1 23.6999 55.1 23.5999 55.2 23.4999C56 23.2999 56.6 23.3999 57.1 23.8999C57.5 24.2999 57.6 24.6999 57.3 24.9999C57.1 25.4999 56.8 25.9999 56.3 26.4999C55.9 26.8999 55.5 27.0999 54.8 27.1999C54.7 27.1999 54.6 27.1999 54.6 27.1999H54.5C54.1 26.9999 54 26.7999 54 26.5999C54 26.4999 54 26.2999 53.9 26.1999Z" fill="white"/>
<path d="M65.3 27.1C65.2 27.4 65.1 27.7 65 28C64.9 28.4 64.8 28.7 64.5 29.1C64.2 29.7 64 30.3 63.7 30.9C63.4 31.5 63.1 32.1 62.9 32.7C62.7 33.2 62.6 33.6 62.4 34C62.2 34.4 62.1 34.8 62 35.3C61.9 35.7 61.9 36 61.7999 36.5C61.7999 36.9 61.7999 37.3 61.7999 37.7C61.9 38.6 62.1 39.2 62.5 39.5C62.9 39.8 63.5 39.9 64.4 39.8C65.7 39.7 66.9999 39.3 68.0999 38.7C68.4999 38.5 68.7999 38.4 69.0999 38.2C69.3999 38 69.6999 37.9 70.0999 37.8C70.1999 37.8 70.3 37.8 70.4 37.9C70.5 37.9 70.7 38 70.8 38C70.3 38.6 69.9 39.2 69.5 39.8C69.1 40.4 68.6 40.8 68 41.1C66.6 41.8 65.1999 42 63.5999 41.8C62.2999 41.6 61.3 41 60.5 39.9C59.7 38.8 59.4 37.6 59.4 36.4C59.5 35.8 59.6 35.2 59.9 34.5C60.1 33.9 60.3 33.2 60.5 32.5C61 31.4 61.5 30.4 62 29.3C62.5 28.2 63 27.2 63.7 26.3C64 25.9 64.3 25.6 64.4 25.2C64.6 24.8 64.8 24.4 65 23.9C65.2 23.4 65.2 22.8 65 22.2C64.7 22.2 64.5 22.2 64.3 22.1C64.1 22.1 63.8 22 63.5 22C62.4 22 61.3 22 60.2 22.1C59.1 22.1 57.8999 22.2 56.7999 22.2C55.9999 22.2 55.2 22.2 54.4 22.1C53.7 22 52.8999 21.8 52.0999 21.6C51.7999 21.5 51.6 21.4 51.4 21.2C51.2 21 51 20.8 50.7 20.7C51.1 20.4 51.6 20.3 52 20.2C52.4 20.2 52.8 20.1 53.2 20.1H65H66.5999C67.2999 19.3 67.7999 18.4 68.1999 17.5C68.5999 16.9 68.9 16.4 69.3 15.8C69.7 15.3 69.9999 14.7 70.1999 14.2C70.2999 14.1 70.4 14 70.4 13.9C70.4 13.8 70.4999 13.7 70.5999 13.6C70.8999 13.3 71.2 13.2 71.5 13.1C71.9 13 72.1999 13 72.5999 13C73.0999 13 73.4 13.1 73.5 13.4C73.6 13.7 73.7999 14 74 14.3C73.2 15.2 72.5 16.1 71.8 16.9C71.1 17.8 70.5 18.7 69.9 19.7C71.3 19.9 72.7 19.9 73.9 19.8C75.2 19.7 76.4999 19.7 77.6999 19.7C78.8999 19.8 80.1 19.8 81.3 19.8C82.5 19.8 83.7 19.7 84.9 19.7C86.1 19.8 87.3999 19.8 88.6999 19.9C89.9999 19.9 91.2999 20 92.5 20.1C90.4 20.8 88.0999 21.2 85.5999 21.2C84.3999 21.3 83.2 21.4 82 21.5C80.7999 21.6 79.6 21.7 78.4 21.8C77.1 21.9 75.7 22 74.4 22C73 22 71.7 22.1 70.3 22.2H69.5999C69.0999 22.2 68.6 22.3 68.3 22.5C67.9 22.7 67.7 23.1 67.5 23.6C67.2999 24.1 66.9999 24.5 66.6999 25C66.3999 25.4 66.1 25.9 65.8 26.4H65.6999C65.5999 26.6 65.5 26.7 65.5 26.8C65.4 26.8 65.4 26.9 65.3 27.1Z" fill="white"/>
<path d="M80.2001 39.9996C79.6001 39.9996 79.1001 39.8996 78.5001 39.6996C78.4001 39.6996 78.3001 39.5996 78.2001 39.4996C78.1001 39.3996 78.0001 39.3996 77.9001 39.2996C77.5001 38.7996 77.3001 38.3996 77.4001 37.8996C77.4001 37.5996 77.5001 37.3996 77.6001 37.1996C77.7001 36.9996 77.7001 36.7996 77.7001 36.5996C77.7001 36.3996 77.6001 36.2996 77.4001 36.2996L77.3001 36.3996C77.3001 36.3996 77.2001 36.3996 77.2001 36.4996C76.9001 36.8996 76.6001 37.2996 76.3001 37.4996C76.1001 37.6996 75.9001 37.7996 75.7001 37.9996C75.5001 38.0996 75.3001 38.2996 75.1001 38.3996C74.9001 38.5996 74.7001 38.7996 74.5001 38.9996C74.3001 39.1996 74.1001 39.3996 73.8001 39.4996C72.8001 40.2996 71.7001 40.5996 70.4001 40.3996C70.0001 40.3996 69.7001 40.1996 69.2001 39.8996C69.0001 39.5996 68.9001 39.3996 68.7001 39.2996C68.4001 38.8996 68.4001 38.4996 68.6001 38.1996C68.7001 37.8996 68.9001 37.5996 69.0001 37.2996C69.1001 36.9996 69.2001 36.6996 69.2001 36.2996C69.3001 35.8996 69.5001 35.5996 69.6001 35.4996C69.8001 35.0996 70.0001 34.7996 70.3001 34.5996C70.5001 34.2996 70.8001 34.0996 71.1001 33.7996C71.3001 33.5996 71.5001 33.2996 71.8001 33.0996C72.0001 32.8996 72.2001 32.5996 72.5001 32.3996C72.6001 32.1996 72.8001 32.0996 73.0001 31.8996C73.2001 31.7996 73.4001 31.5996 73.5001 31.3996C73.7001 31.1996 73.9001 30.9996 74.1001 30.8996C74.3001 30.6996 74.4001 30.4996 74.6001 30.3996C75.3001 29.6996 76.0001 29.1996 76.7001 28.8996L78.5001 28.0996C78.6001 27.9996 78.8001 27.9996 79.0001 27.8996C79.2001 27.8996 79.4001 27.7996 79.5001 27.7996C79.8001 27.6996 80.1001 27.6996 80.4001 27.7996H80.5001C80.8001 27.8996 81.1001 27.9996 81.4001 28.0996C81.7001 28.0996 82.1001 28.1996 82.4001 28.1996C82.8001 28.2996 83.1001 28.4996 83.3001 28.6996C83.5001 28.8996 83.5001 29.1996 83.4001 29.4996C83.4001 30.0996 83.2001 30.6996 82.9001 31.3996C82.8001 31.7996 82.6001 32.0996 82.4001 32.4996C82.2001 32.8996 82.1001 33.1996 82.0001 33.5996C81.9001 33.7996 81.8001 33.9996 81.7001 34.1996C81.6001 34.3996 81.5001 34.5996 81.4001 34.7996C81.3001 35.1996 81.1001 35.4996 81.0001 35.8996C80.9001 36.2996 80.8001 36.5996 80.7001 36.8996V37.3996C80.7001 37.3996 80.7001 37.4996 80.8001 37.5996C80.9001 37.6996 81.0001 37.6996 81.1001 37.6996C81.3001 37.6996 81.5001 37.6996 81.6001 37.5996C82.0001 37.4996 82.3001 37.2996 82.7001 37.0996C83.1001 36.8996 83.4001 36.6996 83.8001 36.5996C84.3001 36.1996 84.9001 35.8996 85.5001 35.4996C86.1001 35.0996 86.6001 34.7996 87.2001 34.3996C87.9001 33.9996 88.7001 33.6996 89.4001 33.3996C89.5001 33.3996 89.7001 33.2996 89.9001 33.2996C90.0001 33.2996 90.1001 33.2996 90.2001 33.3996C90.3001 33.4996 90.3001 33.5996 90.3001 33.6996L89.9001 34.2996C89.6001 34.5996 89.4001 34.7996 89.1001 35.0996C88.8001 35.3996 88.6001 35.5996 88.3001 35.7996C87.7001 36.1996 87.1001 36.5996 86.6001 37.0996C86.1001 37.4996 85.5001 37.9996 84.9001 38.3996C84.6001 38.5996 84.3001 38.7996 83.9001 38.9996C83.5001 39.1996 83.2001 39.3996 82.8001 39.5996C82.0001 39.7996 81.2001 39.9996 80.2001 39.9996ZM80.2001 29.6996C80.2001 29.3996 80.1001 29.2996 79.9001 29.2996C79.7001 29.3996 79.6001 29.3996 79.4001 29.3996C79.3001 29.3996 79.1001 29.3996 79.0001 29.4996C78.6001 29.5996 78.3001 29.6996 78.1001 29.8996C77.8001 30.0996 77.6001 30.1996 77.3001 30.4996C76.9001 30.7996 76.6001 31.0996 76.2001 31.3996C75.8001 31.7996 75.5001 32.0996 75.1001 32.4996C74.6001 33.0996 74.1001 33.7996 73.6001 34.4996C73.1001 35.1996 72.6001 35.8996 72.1001 36.4996V36.7996C72.1001 36.8996 72.0001 36.8996 72.1001 36.9996V37.0996H72.6001C72.7001 36.9996 72.9001 36.8996 73.0001 36.7996C73.1001 36.6996 73.3001 36.5996 73.4001 36.4996C74.0001 35.9996 74.5001 35.4996 75.1001 34.9996C75.7001 34.4996 76.2001 33.9996 76.8001 33.4996C77.3001 33.0996 77.8001 32.5996 78.2001 32.1996C78.6001 31.7996 79.1001 31.3996 79.6001 30.8996C79.7001 30.7996 79.8001 30.5996 79.9001 30.4996C80.0001 30.3996 80.1001 30.1996 80.2001 29.9996C80.2001 29.8996 80.2001 29.7996 80.2001 29.6996Z" fill="white"/>
<path d="M131.6 1.5C131.7 1.5 131.9 1.6 132.2 1.6C132.4 1.6 132.7 1.7 132.9 1.8C133.2 1.8 133.5 2 133.8 2.3C134.5 2.7 134.9 3.3 134.7 4.2C134.7 4.6 134.6 5.1 134.5 5.5C134.4 5.9 134.4 6.3 134.3 6.7C134.3 6.8 134.3 7 134.2 7.1C134.2 7.2 134.1 7.4 134.1 7.5C134 7.6 133.9 7.8 133.9 7.9C133.8 8.1 133.8 8.2 133.7 8.4C133.3 9.2 132.9 10 132.5 10.8C132.1 11.6 131.7 12.4 131.3 13.3C131.2 13.5 131.1 13.8 130.9 14.2C130.4 15 129.9 15.7 129.5 16.6C129.1 17.4 128.7 18.3 128.2 19.1C127.9 19.6 127.7 20.1 127.4 20.6C127.1 21.1 126.9 21.6 126.7 22.1C126.6 22.3 126.5 22.5 126.4 22.8C126.3 23 126.2 23.3 126.1 23.5C125.9 23.9 125.8 24.3 125.6 24.7C125.4 25.1 125.3 25.5 125.2 26C125.1 26.4 124.9 26.7 124.7 27C124.5 27.3 124.4 27.7 124.3 28.1V28.4C124.4 28.6 124.5 28.6 124.8 28.5C125.2 28.2 125.6 28 126 27.7C126.4 27.4 126.8 27.1 127.1 26.8C127.6 26.3 128.1 25.9 128.7 25.4C129.3 25 129.9 24.6 130.5 24.1C130.9 23.8 131.3 23.5 131.7 23.2C132.1 22.9 132.5 22.6 133 22.3C133.1 22.2 133.2 22.1 133.3 22.1C133.4 22 133.5 22 133.6 21.9C134.1 21.4 134.7 20.9 135.3 20.5C135.9 20.1 136.5 19.6 137.1 19.1C137.2 19 137.4 18.9 137.5 18.8C137.7 18.7 137.8 18.6 137.9 18.5C138.8 17.7 139.9 17 141.1 16.3C141.8 15.9 142.4 15.4 142.9 14.8C143.1 14.6 143.4 14.4 143.6 14.1C143.8 13.9 144.1 13.7 144.5 13.6C145 13.4 145.4 13.2 145.9 12.9C146.3 12.6 146.8 12.3 147.2 12C148.1 11.2 149 10.6 149.9 10.1C150.2 10 150.4 9.9 150.7 9.7C150.9 9.5 151.2 9.3 151.5 9.1C151.7 8.9 152 8.8 152.4 8.9C152.8 9 153.1 9.1 153.4 9.3C153.5 9.4 153.5 9.5 153.5 9.7C153.5 9.9 153.4 10 153.3 10.1C152.5 10.6 151.7 11.1 150.9 11.6C150.1 12.1 149.4 12.7 148.7 13.3C147.5 14.4 146.1 15.4 144.5 16.1C144.1 16.2 143.8 16.4 143.6 16.6C143.3 16.8 143 17 142.7 17.1C141.6 17.8 140.5 18.5 139.5 19.3C139.3 19.5 139.1 19.7 138.8 19.9C138.6 20.1 138.3 20.3 138.1 20.4C136.7 21.3 135.4 22.4 134.1 23.6C133.4 24.3 132.7 25 132 25.7C131.3 26.4 130.6 27 129.9 27.7C129.8 27.8 129.7 28 129.6 28.1C129.5 28.2 129.4 28.4 129.2 28.5C128.8 28.9 128.8 29.4 129.1 30C129.2 30.1 129.2 30.2 129.3 30.2C129.3 30.3 129.4 30.3 129.5 30.4C130.1 31.2 130.5 32.1 130.7 33.2C130.9 33.9 131.1 34.5 131.3 35.2C131.5 35.9 131.6 36.5 131.8 37.2C132.2 38.6 132.6 39.9 133.1 41.2C133.6 42.5 134.2 43.8 135 45C135.5 46 136 47 136.7 47.9C137.3 48.8 138 49.8 138.8 50.6C139.6 51.6 140.3 52.6 141.1 53.6C141.9 54.6 142.7 55.5 143.5 56.4C143.9 56.8 144.1 57.4 144.4 58C144.5 58.2 144.4 58.4 144.2 58.5C144.1 58.6 143.9 58.7 143.7 58.6C143.2 58.4 142.7 58 142 57.5C141.6 57.2 141.3 57 141 56.7C140.7 56.4 140.3 56.1 140 55.8C139.6 55.4 139.2 54.9 138.8 54.5C138.4 54.1 138 53.7 137.6 53.2C137 52.5 136.5 51.9 136 51.2C135.5 50.6 135 49.9 134.5 49.1C134.4 48.9 134.2 48.7 134.1 48.5C134 48.3 133.8 48.2 133.7 48C133 47.1 132.4 46.2 131.9 45.2C131.4 44.2 130.9 43.3 130.3 42.3C130 41.8 129.8 41.3 129.6 40.8C129.4 40.3 129.2 39.7 129 39.2C128.6 38.1 128.3 36.9 127.9 35.8C127.5 34.7 127.2 33.5 126.8 32.4C126.8 32.3 126.8 32.3 126.8 32.2V32.1C126.8 32 126.6 31.9 126.5 31.9C126.3 31.8 126.2 31.8 126.1 31.9C126 31.9 125.9 32 125.9 32C125.8 32 125.8 32.1 125.7 32.1C125.5 32.3 125.3 32.4 125.1 32.6C124.9 32.8 124.7 32.9 124.6 33.2C123.7 34.3 122.7 35.4 121.8 36.5C120.9 37.6 119.9 38.7 119 39.8C118 41.1 117.1 42.4 116.5 43.7C116.2 44.2 115.9 44.8 115.7 45.3C115.5 45.9 115.1 46.3 114.7 46.8C114.5 47.2 114.3 47.5 114.2 47.8C114 48.1 113.8 48.5 113.7 48.8C113.3 49.7 112.9 50.6 112.5 51.5C112.1 52.4 111.6 53.3 111.1 54.2C110.9 54.6 110.7 55.1 110.4 55.6C110.1 56.1 110 56.5 109.8 57C109.7 57.2 109.6 57.4 109.5 57.6C109.4 57.8 109.3 58 109.2 58.1C109 58.3 108.9 58.4 108.7 58.2C108.5 58.1 108.5 58 108.6 57.7L108.8 56.7C109 56.1 109.1 55.6 109.3 55C109.5 54.5 109.6 54 109.9 53.5C110 53.1 110.2 52.8 110.3 52.5C110.4 52.2 110.5 51.9 110.6 51.5C110.8 51.1 110.9 50.6 111.1 50.2C111.2 49.8 111.4 49.4 111.6 48.9C111.7 48.5 111.9 48 112 47.6C112.1 47.2 112.2 46.8 112.3 46.4C112.3 46.3 112.3 46.1 112.2 45.9C112.1 45.7 112 45.5 111.9 45.2C111.6 44.6 111.7 44 112 43.5C112.6 42.7 113.2 41.8 113.8 41C114.4 40.2 115 39.3 115.6 38.4C116 37.8 116.3 37.2 116.5 36.6C116.7 36.1 117 35.7 117.2 35.2C117.5 34.8 117.7 34.3 117.9 33.9C118.3 33.2 118.7 32.5 119.1 31.7C119.5 30.9 119.8 30.2 120.1 29.5C120.2 29.2 120.3 29 120.4 28.7C120.5 28.4 120.7 28.2 120.9 27.9C121.2 27.4 121.5 26.9 121.7 26.5C121.9 26 122.2 25.5 122.4 25C122.6 24.5 122.9 24 123.1 23.5C123.3 23 123.6 22.6 123.9 22.1C124 22 124.1 21.8 124.1 21.6C124.2 21.4 124.2 21.3 124.3 21.1C124.5 20.6 124.7 20.1 124.9 19.6C125.1 19.1 125.3 18.6 125.5 18.1C125.7 17.6 125.9 17.1 126.1 16.6C126.3 16.1 126.5 15.5 126.7 15C126.9 14.5 127.2 14 127.4 13.5C127.6 13 127.9 12.5 128.1 12C128.7 10.5 129.2 8.8 129.6 7V6.9C129.6 6.8 129.5 6.6 129.4 6.5C129.2 6.4 129.1 6.3 129 6.3C128.9 6.3 128.8 6.4 128.7 6.4C128.6 6.4 128.5 6.4 128.4 6.5C127.8 6.8 127.2 7.1 126.7 7.6C125.8 8.3 124.9 8.9 124 9.6C123.1 10.3 122.3 11 121.4 11.7C120.9 12.1 120.5 12.5 120 12.9C119.6 13.3 119.2 13.7 118.8 14.2C118.4 14.6 118 15.1 117.6 15.5C117.2 15.9 116.8 16.3 116.3 16.8C115.9 17.3 115.4 17.8 115 18.3C114.6 18.8 114.1 19.3 113.6 19.8C112.8 20.7 112.1 21.6 111.4 22.5C110.6 23.4 110 24.3 109.3 25.3C108.7 25.9 108.2 26.6 107.7 27.3C107.2 28 106.7 28.7 106.2 29.4C106.1 29.5 105.9 29.7 105.7 30C105.3 30.3 105 30.4 104.8 30.4C104.1 30.4 103.5 30.3 102.9 29.9C102.7 29.8 102.5 29.6 102.4 29.3C102.3 29.1 102.2 28.8 102.3 28.6C102.3 28.4 102.4 28.3 102.6 28.1C102.8 27.9 102.9 27.7 103.1 27.5C103.2 27.3 103.4 27.1 103.6 26.9C104.3 26 105.1 25.1 105.8 24.3C106.5 23.4 107.3 22.6 108 21.7C108.2 21.5 108.4 21.3 108.5 21.1C108.7 20.9 108.8 20.7 109 20.5C109.5 19.7 110.1 19.1 110.7 18.4C111.3 17.8 111.9 17.1 112.5 16.4C112.6 16.3 112.7 16.2 112.8 16.1C112.9 16 113 15.9 113.1 15.8C114.2 14.9 115.2 13.9 116.1 12.8C116.3 12.6 116.5 12.4 116.8 12.2C117.1 12 117.2 11.8 117.5 11.6C118.5 10.8 119.4 10 120.4 9.2C121.4 8.4 122.3 7.6 123.3 6.9C123.4 6.8 123.6 6.7 123.7 6.6C123.8 6.5 124 6.4 124.1 6.3C125.1 5.5 126.2 4.7 127.2 4C128.3 3.3 129.4 2.7 130.5 2C130.4 1.6 131 1.5 131.6 1.5Z" fill="white"/>
<path d="M152.3 39.9996C151.7 39.9996 151.2 39.8996 150.6 39.6996C150.5 39.6996 150.4 39.5996 150.3 39.4996C150.2 39.3996 150.1 39.3996 150 39.2996C149.6 38.7996 149.4 38.3996 149.5 37.8996C149.5 37.5996 149.6 37.3996 149.7 37.1996C149.8 36.9996 149.8 36.7996 149.8 36.5996C149.8 36.3996 149.7 36.2996 149.5 36.2996L149.4 36.3996C149.4 36.3996 149.3 36.3996 149.3 36.4996C149 36.8996 148.7 37.2996 148.4 37.4996C148.2 37.6996 148 37.7996 147.8 37.9996C147.6 38.0996 147.4 38.2996 147.2 38.3996C147 38.5996 146.8 38.7996 146.6 38.9996C146.4 39.1996 146.2 39.3996 145.9 39.4996C144.9 40.2996 143.8 40.5996 142.5 40.3996C142.1 40.3996 141.8 40.1996 141.3 39.8996C141.1 39.5996 141 39.3996 140.8 39.2996C140.5 38.8996 140.5 38.4996 140.7 38.1996C140.8 37.8996 141 37.5996 141.1 37.2996C141.2 36.9996 141.3 36.6996 141.3 36.2996C141.4 35.8996 141.6 35.5996 141.7 35.4996C141.9 35.0996 142.1 34.7996 142.4 34.5996C142.6 34.2996 142.9 34.0996 143.2 33.7996C143.4 33.5996 143.6 33.2996 143.9 33.0996C144.1 32.8996 144.3 32.5996 144.6 32.3996C144.7 32.1996 144.9 32.0996 145.1 31.8996C145.3 31.7996 145.5 31.5996 145.6 31.3996C145.8 31.1996 146 30.9996 146.2 30.8996C146.4 30.6996 146.5 30.4996 146.7 30.3996C147.4 29.6996 148.1 29.1996 148.8 28.8996L150.6 28.0996C150.7 27.9996 150.9 27.9996 151.1 27.8996C151.3 27.8996 151.5 27.7996 151.6 27.7996C151.9 27.6996 152.2 27.6996 152.5 27.7996H152.6C152.9 27.8996 153.2 27.9996 153.5 28.0996C153.8 28.0996 154.2 28.1996 154.5 28.1996C154.9 28.2996 155.2 28.4996 155.4 28.6996C155.6 28.8996 155.6 29.1996 155.5 29.4996C155.5 30.0996 155.3 30.6996 155 31.3996C154.9 31.7996 154.7 32.0996 154.5 32.4996C154.3 32.8996 154.2 33.1996 154.1 33.5996C154 33.7996 153.9 33.9996 153.8 34.1996C153.7 34.3996 153.6 34.5996 153.5 34.7996C153.4 35.1996 153.2 35.4996 153.1 35.8996C153 36.2996 152.9 36.5996 152.8 36.8996V37.3996C152.8 37.3996 152.8 37.4996 152.9 37.5996C153 37.6996 153.1 37.6996 153.2 37.6996C153.4 37.6996 153.6 37.6996 153.7 37.5996C154.1 37.4996 154.4 37.2996 154.8 37.0996C155.2 36.8996 155.5 36.6996 155.9 36.5996C156.4 36.1996 157 35.8996 157.6 35.4996C158.2 35.0996 158.7 34.7996 159.3 34.3996C160 33.9996 160.8 33.6996 161.5 33.3996C161.6 33.3996 161.8 33.2996 162 33.2996C162.1 33.2996 162.2 33.2996 162.3 33.3996C162.4 33.4996 162.4 33.5996 162.4 33.6996L162 34.2996C161.7 34.5996 161.5 34.7996 161.2 35.0996C160.9 35.3996 160.7 35.5996 160.4 35.7996C159.8 36.1996 159.2 36.5996 158.7 37.0996C158.2 37.4996 157.6 37.9996 157 38.3996C156.7 38.5996 156.4 38.7996 156 38.9996C155.6 39.1996 155.3 39.3996 154.9 39.5996C154.1 39.7996 153.3 39.9996 152.3 39.9996ZM152.3 29.6996C152.3 29.3996 152.2 29.2996 152 29.2996C151.8 29.3996 151.7 29.3996 151.5 29.3996C151.4 29.3996 151.2 29.3996 151.1 29.4996C150.7 29.5996 150.4 29.6996 150.2 29.8996C149.9 30.0996 149.7 30.1996 149.4 30.4996C149 30.7996 148.7 31.0996 148.3 31.3996C147.9 31.7996 147.6 32.0996 147.2 32.4996C146.7 33.0996 146.2 33.7996 145.7 34.4996C145.2 35.1996 144.7 35.8996 144.2 36.4996V36.7996C144.2 36.8996 144.1 36.8996 144.2 36.9996V37.0996H144.7C144.8 36.9996 145 36.8996 145.1 36.7996C145.2 36.6996 145.4 36.5996 145.5 36.4996C146.1 35.9996 146.6 35.4996 147.2 34.9996C147.8 34.4996 148.3 33.9996 148.9 33.4996C149.4 33.0996 149.9 32.5996 150.3 32.1996C150.7 31.7996 151.2 31.3996 151.7 30.8996C151.8 30.7996 151.9 30.5996 152 30.4996C152.1 30.3996 152.2 30.1996 152.3 29.9996C152.3 29.8996 152.3 29.7996 152.3 29.6996Z" fill="white"/>
<path d="M167.3 38.4C167.2 38.5 167.2 38.6 167.1 38.6C167.1 38.6 167 38.7 166.9 38.7C166.9 38.8 166.7 38.9 166.6 39.1H166.5L166.3 39.3C166.1 39.6 165.8 39.8 165.5 40.1C165.2 40.4 164.9 40.6 164.7 40.8C164.1 41.4 163.5 41.7 162.7 41.9H162.5C162.1 42 161.7 41.9 161.3 41.8C160.9 41.6 160.6 41.4 160.2 41.1C159.7 40.6 159.5 40.1 159.7 39.4V39.3C159.8 38.6 160 37.9 160.1 37.2C160.3 36.5 160.4 35.9 160.6 35.3L162 31.5C162.1 30.9 162.4 30.3 162.7 29.7C163.4 28.1 164.1 26.5 164.8 24.9C165.5 23.3 166.2 21.7 167 20.2L167.1 19.7C167.3 19.1 167.5 18.6 167.7 18.2C167.9 17.8 168.2 17.3 168.6 16.8C168.7 16.7 168.7 16.6 168.8 16.4C168.8 16.2 168.9 16.1 169 15.8L171.6 9.1C171.7 8.8 171.8 8.5 171.9 8.2C172 7.9 172.2 7.6 172.3 7.3C172.4 7.1 172.5 6.8 172.5 6.6C172.5 6.4 172.6 6.1 172.7 5.9C172.8 5.5 173.1 5.3 173.4 5.2C173.6 5.1 173.7 5.1 173.9 5.1C174 5.1 174.1 5.1 174.2 5C174.4 5 174.6 5.1 174.6 5.1C174.8 5.2 174.9 5.3 175.1 5.4C175.3 5.7 175.3 6 175.3 6.3V7C175.2 7.2 175.2 7.3 175.1 7.5C175.1 7.7 175 7.8 174.9 7.9C174.6 8.5 174.4 9.1 174.1 9.7C173.8 10.3 173.6 10.9 173.3 11.5C172.6 12.9 172 14.2 171.4 15.5C170.8 16.8 170.2 18.2 169.7 19.5C169.4 20.2 169.2 20.8 168.9 21.5C168.7 22.2 168.4 22.8 168.1 23.5L166.1 27.7C166 28.1 165.8 28.5 165.7 28.9C165.5 29.3 165.4 29.6 165.2 30C165.1 30.2 165 30.5 164.9 30.8C164.8 31.1 164.7 31.4 164.5 31.6C163.7 33.5 163 35.5 162.5 37.6C162.5 37.7 162.5 37.8 162.5 38C162.5 38.2 162.5 38.3 162.5 38.6V38.9C162.5 39.3 162.7 39.4 163 39.3C163.1 39.3 163.3 39.2 163.4 39.1C163.5 39 163.6 39 163.8 38.9C164.1 38.6 164.4 38.4 164.7 38.3C165 38.1 165.3 37.9 165.6 37.7L165.9 37.4H166L166.7 36.7V36.8C167 36.5 167.3 36.2 167.6 35.9C167.7 35.8 167.8 35.7 167.9 35.6C168 35.5 168.1 35.4 168.2 35.3L170.4 33.6C170.7 33.4 170.9 33.2 171.2 33C171.4 32.8 171.7 32.6 172 32.4H172.1C172.1 32.5 172.2 32.6 172.2 32.7C172.1 32.9 172 33.1 171.9 33.3C171.8 33.5 171.6 33.7 171.4 33.8C171.3 33.9 171.2 34 171.1 34.1C171 34.2 170.9 34.3 170.8 34.4C170.6 34.6 170.4 34.9 170.3 35.1C170.2 35.3 170 35.6 169.8 35.8C169.6 36 169.4 36.2 169.2 36.4C169 36.6 168.9 36.8 168.7 37L167.8 38.1C167.7 38.2 167.7 38.3 167.6 38.3C167.4 38.2 167.3 38.3 167.3 38.4Z" fill="white"/>
<path d="M179.3 39.9996C178.7 39.9996 178.2 39.8996 177.6 39.6996C177.5 39.6996 177.4 39.5996 177.3 39.4996C177.2 39.3996 177.1 39.3996 177 39.2996C176.6 38.7996 176.4 38.3996 176.5 37.8996C176.5 37.5996 176.6 37.3996 176.7 37.1996C176.8 36.9996 176.8 36.7996 176.8 36.5996C176.8 36.3996 176.7 36.2996 176.5 36.2996L176.4 36.3996C176.4 36.3996 176.3 36.3996 176.3 36.4996C176 36.8996 175.7 37.2996 175.4 37.4996C175.2 37.6996 175 37.7996 174.8 37.9996C174.6 38.0996 174.4 38.2996 174.2 38.3996C174 38.5996 173.8 38.7996 173.6 38.9996C173.4 39.1996 173.2 39.3996 172.9 39.4996C171.9 40.2996 170.8 40.5996 169.5 40.3996C169.1 40.3996 168.8 40.1996 168.3 39.8996C168.1 39.5996 168 39.3996 167.8 39.2996C167.5 38.8996 167.5 38.4996 167.7 38.1996C167.8 37.8996 168 37.5996 168.1 37.2996C168.2 36.9996 168.3 36.6996 168.3 36.2996C168.4 35.8996 168.6 35.5996 168.7 35.4996C168.9 35.0996 169.1 34.7996 169.4 34.5996C169.6 34.2996 169.9 34.0996 170.2 33.7996C170.4 33.5996 170.6 33.2996 170.9 33.0996C171.1 32.8996 171.3 32.5996 171.6 32.3996C171.7 32.1996 171.9 32.0996 172.1 31.8996C172.3 31.7996 172.5 31.5996 172.6 31.3996C172.8 31.1996 173 30.9996 173.2 30.8996C173.4 30.6996 173.5 30.4996 173.7 30.3996C174.4 29.6996 175.1 29.1996 175.8 28.8996L177.6 28.0996C177.7 27.9996 177.9 27.9996 178.1 27.8996C178.3 27.8996 178.5 27.7996 178.6 27.7996C178.9 27.6996 179.2 27.6996 179.5 27.7996H179.6C179.9 27.8996 180.2 27.9996 180.5 28.0996C180.8 28.0996 181.2 28.1996 181.5 28.1996C181.9 28.2996 182.2 28.4996 182.4 28.6996C182.6 28.8996 182.6 29.1996 182.5 29.4996C182.5 30.0996 182.3 30.6996 182 31.3996C181.9 31.7996 181.7 32.0996 181.5 32.4996C181.3 32.8996 181.2 33.1996 181.1 33.5996C181 33.7996 180.9 33.9996 180.8 34.1996C180.7 34.3996 180.6 34.5996 180.5 34.7996C180.4 35.1996 180.2 35.4996 180.1 35.8996C180 36.2996 179.9 36.5996 179.8 36.8996V37.3996C179.8 37.3996 179.8 37.4996 179.9 37.5996C180 37.6996 180.1 37.6996 180.2 37.6996C180.4 37.6996 180.6 37.6996 180.7 37.5996C181.1 37.4996 181.4 37.2996 181.8 37.0996C182.2 36.8996 182.5 36.6996 182.9 36.5996C183.4 36.1996 184 35.8996 184.6 35.4996C185.2 35.0996 185.7 34.7996 186.3 34.3996C187 33.9996 187.8 33.6996 188.5 33.3996C188.6 33.3996 188.8 33.2996 189 33.2996C189.1 33.2996 189.2 33.2996 189.3 33.3996C189.4 33.4996 189.4 33.5996 189.4 33.6996L189 34.2996C188.7 34.5996 188.5 34.7996 188.2 35.0996C187.9 35.3996 187.7 35.5996 187.4 35.7996C186.8 36.1996 186.2 36.5996 185.7 37.0996C185.2 37.4996 184.6 37.9996 184 38.3996C183.7 38.5996 183.4 38.7996 183 38.9996C182.6 39.1996 182.3 39.3996 181.9 39.5996C181 39.7996 180.2 39.9996 179.3 39.9996ZM179.2 29.6996C179.2 29.3996 179.1 29.2996 178.9 29.2996C178.7 29.3996 178.6 29.3996 178.4 29.3996C178.3 29.3996 178.1 29.3996 178 29.4996C177.6 29.5996 177.3 29.6996 177.1 29.8996C176.8 30.0996 176.6 30.1996 176.3 30.4996C175.9 30.7996 175.6 31.0996 175.2 31.3996C174.8 31.7996 174.5 32.0996 174.1 32.4996C173.6 33.0996 173.1 33.7996 172.6 34.4996C172.1 35.1996 171.6 35.8996 171.1 36.4996V36.7996C171.1 36.8996 171 36.8996 171.1 36.9996V37.0996H171.6C171.7 36.9996 171.9 36.8996 172 36.7996C172.1 36.6996 172.3 36.5996 172.4 36.4996C173 35.9996 173.5 35.4996 174.1 34.9996C174.7 34.4996 175.2 33.9996 175.8 33.4996C176.3 33.0996 176.8 32.5996 177.2 32.1996C177.6 31.7996 178.1 31.3996 178.6 30.8996C178.7 30.7996 178.8 30.5996 178.9 30.4996C179 30.3996 179.1 30.1996 179.2 29.9996C179.2 29.8996 179.2 29.7996 179.2 29.6996Z" fill="white"/>
<path d="M194.2 38.4C194.1 38.5 194.1 38.6 194 38.6C194 38.6 193.9 38.7 193.8 38.7C193.8 38.8 193.6 38.9 193.5 39.1H193.4L193.2 39.3C193 39.6 192.7 39.8 192.4 40.1C192.1 40.4 191.8 40.6 191.6 40.8C191 41.4 190.4 41.7 189.6 41.9H189.4C189 42 188.6 41.9 188.2 41.8C187.8 41.6 187.5 41.4 187.1 41.1C186.6 40.6 186.4 40.1 186.6 39.4V39.3C186.7 38.6 186.9 37.9 187 37.2C187.2 36.5 187.3 35.9 187.5 35.3L188.9 31.5C189 30.9 189.3 30.3 189.6 29.7C190.3 28.1 191 26.5 191.7 24.9C192.4 23.3 193.1 21.7 193.9 20.2L194 19.7C194.2 19.1 194.4 18.6 194.6 18.2C194.8 17.8 195.1 17.3 195.5 16.8C195.6 16.7 195.6 16.6 195.7 16.4C195.7 16.2 195.8 16.1 195.9 15.8L198.5 9.1C198.6 8.8 198.7 8.5 198.8 8.2C198.9 7.9 199.1 7.6 199.2 7.3C199.3 7.1 199.4 6.8 199.4 6.6C199.4 6.4 199.5 6.1 199.6 5.9C199.7 5.5 200 5.3 200.3 5.2C200.5 5.1 200.6 5.1 200.8 5.1C200.9 5.1 201 5.1 201.1 5C201.3 5 201.5 5.1 201.5 5.1C201.7 5.2 201.8 5.3 202 5.4C202.2 5.7 202.2 6 202.2 6.3V7C202.1 7.2 202.1 7.3 202 7.5C202 7.7 201.9 7.8 201.8 7.9C201.5 8.5 201.3 9.1 201 9.7C200.7 10.3 200.5 10.9 200.2 11.5C199.5 12.9 198.9 14.2 198.3 15.5C197.7 16.8 197.1 18.2 196.6 19.5C196.3 20.2 196.1 20.8 195.8 21.5C195.6 22.2 195.3 22.8 195 23.5L193 27.7C192.9 28.1 192.7 28.5 192.6 28.9C192.4 29.3 192.3 29.6 192.1 30C192 30.2 191.9 30.5 191.8 30.8C191.7 31.1 191.6 31.4 191.4 31.6C190.6 33.5 189.9 35.5 189.4 37.6C189.4 37.7 189.4 37.8 189.4 38C189.4 38.2 189.4 38.3 189.4 38.6V38.9C189.4 39.3 189.6 39.4 189.9 39.3C190 39.3 190.2 39.2 190.3 39.1C190.4 39 190.5 39 190.7 38.9C191 38.6 191.3 38.4 191.6 38.3C191.9 38.1 192.2 37.9 192.5 37.7L192.8 37.4H192.9L193.6 36.7V36.8C193.9 36.5 194.2 36.2 194.5 35.9C194.6 35.8 194.7 35.7 194.8 35.6C194.9 35.5 195 35.4 195.1 35.3L197.3 33.6C197.6 33.4 197.8 33.2 198.1 33C198.3 32.8 198.6 32.6 198.9 32.4H199C199 32.5 199.1 32.6 199.1 32.7C199 32.9 198.9 33.1 198.8 33.3C198.7 33.5 198.5 33.7 198.3 33.8C198.2 33.9 198.1 34 198 34.1C197.9 34.2 197.8 34.3 197.7 34.4C197.5 34.6 197.3 34.9 197.2 35.1C197.1 35.3 196.9 35.6 196.7 35.8C196.5 36 196.3 36.2 196.1 36.4C195.9 36.6 195.8 36.8 195.6 37L194.7 38.1C194.6 38.2 194.6 38.3 194.5 38.3C194.3 38.2 194.2 38.3 194.2 38.4Z" fill="white"/>
<path d="M206.2 39.9996C205.6 39.9996 205.1 39.8996 204.5 39.6996C204.4 39.6996 204.3 39.5996 204.2 39.4996C204.1 39.3996 204 39.3996 203.9 39.2996C203.5 38.7996 203.3 38.3996 203.4 37.8996C203.4 37.5996 203.5 37.3996 203.6 37.1996C203.7 36.9996 203.7 36.7996 203.7 36.5996C203.7 36.3996 203.6 36.2996 203.4 36.2996L203.3 36.3996C203.3 36.3996 203.2 36.3996 203.2 36.4996C202.9 36.8996 202.6 37.2996 202.3 37.4996C202.1 37.6996 201.9 37.7996 201.7 37.9996C201.5 38.0996 201.3 38.2996 201.1 38.3996C200.9 38.5996 200.7 38.7996 200.5 38.9996C200.3 39.1996 200.1 39.3996 199.8 39.4996C198.8 40.2996 197.7 40.5996 196.4 40.3996C196 40.3996 195.7 40.1996 195.2 39.8996C195 39.5996 194.9 39.3996 194.7 39.2996C194.4 38.8996 194.4 38.4996 194.6 38.1996C194.7 37.8996 194.9 37.5996 195 37.2996C195.1 36.9996 195.2 36.6996 195.2 36.2996C195.3 35.8996 195.5 35.5996 195.6 35.4996C195.8 35.0996 196 34.7996 196.3 34.5996C196.5 34.2996 196.8 34.0996 197.1 33.7996C197.3 33.5996 197.5 33.2996 197.8 33.0996C198 32.8996 198.2 32.5996 198.5 32.3996C198.6 32.1996 198.8 32.0996 199 31.8996C199.2 31.7996 199.4 31.5996 199.5 31.3996C199.7 31.1996 199.9 30.9996 200.1 30.8996C200.3 30.6996 200.4 30.4996 200.6 30.3996C201.3 29.6996 202 29.1996 202.7 28.8996L204.5 28.0996C204.6 27.9996 204.8 27.9996 205 27.8996C205.2 27.8996 205.4 27.7996 205.5 27.7996C205.8 27.6996 206.1 27.6996 206.4 27.7996H206.5C206.8 27.8996 207.1 27.9996 207.4 28.0996C207.7 28.0996 208.1 28.1996 208.4 28.1996C208.8 28.2996 209.1 28.4996 209.3 28.6996C209.5 28.8996 209.5 29.1996 209.4 29.4996C209.4 30.0996 209.2 30.6996 208.9 31.3996C208.8 31.7996 208.6 32.0996 208.4 32.4996C208.2 32.8996 208.1 33.1996 208 33.5996C207.9 33.7996 207.8 33.9996 207.7 34.1996C207.6 34.3996 207.5 34.5996 207.4 34.7996C207.3 35.1996 207.1 35.4996 207 35.8996C206.9 36.2996 206.8 36.5996 206.7 36.8996V37.3996C206.7 37.3996 206.7 37.4996 206.8 37.5996C206.9 37.6996 207 37.6996 207.1 37.6996C207.3 37.6996 207.5 37.6996 207.6 37.5996C208 37.4996 208.3 37.2996 208.7 37.0996C209.1 36.8996 209.4 36.6996 209.8 36.5996C210.3 36.1996 210.9 35.8996 211.5 35.4996C212.1 35.0996 212.6 34.7996 213.2 34.3996C213.9 33.9996 214.7 33.6996 215.4 33.3996C215.5 33.3996 215.7 33.2996 215.9 33.2996C216 33.2996 216.1 33.2996 216.2 33.3996C216.3 33.4996 216.3 33.5996 216.3 33.6996L215.9 34.2996C215.6 34.5996 215.4 34.7996 215.1 35.0996C214.8 35.3996 214.6 35.5996 214.3 35.7996C213.7 36.1996 213.1 36.5996 212.6 37.0996C212.1 37.4996 211.5 37.9996 210.9 38.3996C210.6 38.5996 210.3 38.7996 209.9 38.9996C209.5 39.1996 209.2 39.3996 208.8 39.5996C208 39.7996 207.2 39.9996 206.2 39.9996ZM206.1 29.6996C206.1 29.3996 206 29.2996 205.8 29.2996C205.6 29.3996 205.5 29.3996 205.3 29.3996C205.2 29.3996 205 29.3996 204.9 29.4996C204.5 29.5996 204.2 29.6996 204 29.8996C203.7 30.0996 203.5 30.1996 203.2 30.4996C202.8 30.7996 202.5 31.0996 202.1 31.3996C201.7 31.7996 201.4 32.0996 201 32.4996C200.5 33.0996 200 33.7996 199.5 34.4996C199 35.1996 198.5 35.8996 198 36.4996V36.7996C198 36.8996 197.9 36.8996 198 36.9996V37.0996H198.5C198.6 36.9996 198.8 36.8996 198.9 36.7996C199 36.6996 199.2 36.5996 199.3 36.4996C199.9 35.9996 200.4 35.4996 201 34.9996C201.6 34.4996 202.1 33.9996 202.7 33.4996C203.2 33.0996 203.7 32.5996 204.1 32.1996C204.5 31.7996 205 31.3996 205.5 30.8996C205.6 30.7996 205.7 30.5996 205.8 30.4996C205.9 30.3996 206 30.1996 206.1 29.9996C206.2 29.8996 206.2 29.7996 206.1 29.6996Z" fill="white"/>
</svg>
